<?xml version="1.0" standalone="no"?>
<!DOCTYPE svg PUBLIC "-//W3C//DTD SVG 1.1//EN" "http://www.w3.org/Graphics/SVG/1.1/DTD/svg11.dtd">
<svg xmlns="http://www.w3.org/2000/svg">
<metadata>Copyright (C) 2016 by original authors @ fontello.com</metadata>
<defs>
<font id="fontello" horiz-adv-x="1000" >
<font-face font-family="fontello" font-weight="400" font-stretch="normal" units-per-em="1000" ascent="850" descent="-150" />
<missing-glyph horiz-adv-x="1000" />
<glyph glyph-name="wifi" unicode="&#xe800;" d="M431 34c0-38 30-68 68-68s67 30 67 68c0 37-30 67-67 67-37 0-68-30-68-67z m73 0c0-3-2-5-5-5-3 0-5 2-5 5 0 2 2 4 5 4 3 0 5-2 5-4z m291 299c9 0 19 4 26 12 14 14 13 37-2 51-88 80-201 125-320 125-118 0-230-44-317-123-15-13-16-36-3-51 14-15 37-16 52-2 73 67 169 103 268 103 101 0 198-37 271-105 7-7 16-10 25-10z m-135-162c9 0 19 4 26 12 14 14 13 37-2 51-51 46-116 72-185 72s-133-25-183-70c-15-14-15-37-2-52 13-15 36-15 51-2 37 34 85 52 134 52 51 0 99-19 136-53 7-7 16-10 25-10z m304 309c10 0 19 4 27 12 13 14 12 37-3 51-134 123-308 191-490 191-180 0-353-67-486-187-15-14-16-37-3-52s37-15 52-2c120 109 275 169 437 169 164 0 321-61 441-172 8-6 17-10 25-10z" horiz-adv-x="1000" />

<glyph glyph-name="washingmachine" unicode="&#xe801;" d="M849 850h-698c-41 0-75-34-75-75v-906c0-11 8-19 19-19h811c10 0 18 8 18 19v906c0 41-33 75-75 75z m-736-962v773h642c10 0 19 9 19 19s-9 19-19 19h-642v76c0 20 17 37 38 37h698c21 0 38-17 38-37v-76h-56c-11 0-19-8-19-19s8-19 19-19h56v-773h-774z m387 698c-172 0-312-140-312-312s140-312 312-312c172 0 312 140 312 312s-140 312-312 312z m0-586c-151 0-274 123-274 274s123 274 274 274c115 0 213-71 254-171h-17c-8 0-16-1-23-4-38 83-122 137-214 137-130 0-236-106-236-236s106-236 236-236c92 0 176 54 214 137 7-3 15-4 23-4h17c-41-100-139-171-254-171z m216 215c0 0-1 1-1 1-10 7-16 18-16 31v55c0 12 6 23 16 30 0 0 1 1 1 1 6 4 13 6 21 6h29c6-21 8-43 8-65s-2-44-8-65h-29c-8 0-15 2-21 6z m-34-20c-31-72-103-119-182-119-109 0-198 89-198 198s89 198 198 198c79 0 151-47 182-119-13-14-20-32-20-51v-55c0-20 7-38 20-52z m129 561c0 20-17 37-37 37s-38-17-38-37 17-38 38-38 37 17 37 38z m-150 37c-20 0-37-17-37-37s17-38 37-38 38 17 38 38-17 37-38 37z m-302-19h-169c-11 0-19-8-19-18s8-19 19-19h169c11 0 19 8 19 19s-8 18-19 18z m112 0h-36c-11 0-19-8-19-18s8-19 19-19h36c10 0 19 8 19 19s-9 18-19 18z m29-339c-89 0-161-72-161-161 0-10 8-19 19-19s19 9 19 19c0 68 55 123 123 123 10 0 19 9 19 19s-9 19-19 19z" horiz-adv-x="1000" />

<glyph glyph-name="smoking" unicode="&#xe802;" d="M966 275h-75-619-251c-11 0-21-9-21-21v-158c0-11 10-21 21-21h251 619 75c11 0 21 10 21 21v158c0 12-10 21-21 21z m-672-42h576v-116h-576v116z m650-116h-32v116h32v-116z m-44 382c-16 42-3 91 30 121 9 8 22 7 30-2 8-9 7-22-2-30-20-18-28-49-18-74 5-13 14-25 24-37 10-14 22-29 29-47 18-47 0-106-42-134-4-3-8-4-12-4-7 0-13 3-17 10-7 9-4 23 5 29 26 17 38 55 26 83-5 13-14 25-23 37-11 14-23 29-30 48z" horiz-adv-x="1000" />

<glyph glyph-name="essentials" unicode="&#xe803;" d="M727 741h-472c-42 0-78-23-98-56h49c13 11 30 18 49 18 41 0 75-34 75-75v-650c0-11 9-19 19-19h472c10 0 19 8 19 19v650c0 62-51 113-113 113z m0-38c41 0 75-34 75-75v-419h-434v419c0 29-11 55-29 75h388v0z m-359-515h434v-38h-434v38z m0-191v56h434v-56h-434z m-113 320h-76v254h-37v-273c0-10 8-18 18-18h95c10 0 19 8 19 18 0 11-9 19-19 19z m696 360c-16 0-31-8-40-21h-56c2-9 4-18 4-28v-28h52c9-13 24-21 40-21 27 0 49 22 49 49 0 27-22 49-49 49z m-862-21c-9 13-24 21-40 21-27 0-49-22-49-49 0-27 22-49 49-49 16 0 31 8 40 21h222v28c0 10-3 20-7 28h-215z" horiz-adv-x="1000" />

<glyph glyph-name="kitchenware" unicode="&#xe804;" d="M812-59l-30 708c-1 25-21 44-46 44h-3l-7 86c-3 40-37 71-77 71h-298c-40 0-74-31-77-71l-7-86h-3c-25 0-45-19-46-44l-30-708c-21-4-36-23-36-45 0-25 20-46 46-46h605c25 0 46 21 46 46 0 22-16 41-37 45z m-509 836c2 24 23 44 48 44h298c25 0 46-20 48-44l6-84h-406l6 84z m-56-129c1 9 8 16 17 16h17c0 0 0 0 0 0h438c0 0 0 0 0 0 0 0 0 0 0 0h17c9 0 16-7 17-16l29-706-188 0h-376l29 706z m556-769h-605c-10 0-17 8-17 17s7 17 17 17h4c1 0 1 0 1 0l396 0h204c9 0 16-8 16-17s-7-17-16-17z m-491 206c8 0 15 6 15 15v31c0 8-7 15-15 15s-14-7-14-15v-31c0-9 6-15 14-15z m94 0c8 0 15 6 15 15v31c0 8-7 15-15 15s-15-7-15-15v-31c0-9 7-15 15-15z m94 0c8 0 15 6 15 15v31c0 8-7 15-15 15s-15-7-15-15v-31c0-9 7-15 15-15z m94 0c8 0 15 6 15 15v31c0 8-7 15-15 15s-15-7-15-15v-31c0-9 7-15 15-15z m94 0c8 0 15 6 15 15v31c0 8-7 15-15 15s-15-7-15-15v-31c0-9 7-15 15-15z m-376 188c8 0 15 6 15 14v32c0 8-7 14-15 14s-14-6-14-14v-32c0-8 6-14 14-14z m94 0c8 0 15 6 15 14v32c0 8-7 14-15 14s-15-6-15-14v-32c0-8 7-14 15-14z m94 0c8 0 15 6 15 14v32c0 8-7 14-15 14s-15-6-15-14v-32c0-8 7-14 15-14z m94 0c8 0 15 6 15 14v32c0 8-7 14-15 14s-15-6-15-14v-32c0-8 7-14 15-14z m94 0c8 0 15 6 15 14v32c0 8-7 14-15 14s-15-6-15-14v-32c0-8 7-14 15-14z m-376 188c8 0 15 6 15 14v32c0 8-7 14-15 14s-14-6-14-14v-32c0-8 6-14 14-14z m94 0c8 0 15 6 15 14v32c0 8-7 14-15 14s-15-6-15-14v-32c0-8 7-14 15-14z m94 0c8 0 15 6 15 14v32c0 8-7 14-15 14s-15-6-15-14v-32c0-8 7-14 15-14z m94 0c8 0 15 6 15 14v32c0 8-7 14-15 14s-15-6-15-14v-32c0-8 7-14 15-14z m94 0c8 0 15 6 15 14v32c0 8-7 14-15 14s-15-6-15-14v-32c0-8 7-14 15-14z m-329-470c8 0 15 6 15 15v31c0 8-7 15-15 15s-15-7-15-15v-31c0-9 7-15 15-15z m94 0c8 0 15 6 15 15v31c0 8-7 15-15 15s-15-7-15-15v-31c0-9 7-15 15-15z m94 0c8 0 15 6 15 15v31c0 8-7 15-15 15s-15-7-15-15v-31c0-9 7-15 15-15z m94 0c8 0 15 6 15 15v31c0 8-7 15-15 15s-15-7-15-15v-31c0-9 7-15 15-15z m-282 188c8 0 15 6 15 14v32c0 8-7 14-15 14s-15-6-15-14v-32c0-8 7-14 15-14z m94 0c8 0 15 6 15 14v32c0 8-7 14-15 14s-15-6-15-14v-32c0-8 7-14 15-14z m94 0c8 0 15 6 15 14v32c0 8-7 14-15 14s-15-6-15-14v-32c0-8 7-14 15-14z m94 0c8 0 15 6 15 14v32c0 8-7 14-15 14s-15-6-15-14v-32c0-8 7-14 15-14z m-282 188c8 0 15 6 15 14v32c0 8-7 14-15 14s-15-6-15-14v-32c0-8 7-14 15-14z m94 0c8 0 15 6 15 14v32c0 8-7 14-15 14s-15-6-15-14v-32c0-8 7-14 15-14z m94 0c8 0 15 6 15 14v32c0 8-7 14-15 14s-15-6-15-14v-32c0-8 7-14 15-14z m94 0c8 0 15 6 15 14v32c0 8-7 14-15 14s-15-6-15-14v-32c0-8 7-14 15-14z m-282 188c8 0 15 6 15 14v32c0 8-7 14-15 14s-15-6-15-14v-32c0-8 7-14 15-14z m94 0c8 0 15 6 15 14v32c0 8-7 14-15 14s-15-6-15-14v-32c0-8 7-14 15-14z m94 0c8 0 15 6 15 14v32c0 8-7 14-15 14s-15-6-15-14v-32c0-8 7-14 15-14z m94 0c8 0 15 6 15 14v32c0 8-7 14-15 14s-15-6-15-14v-32c0-8 7-14 15-14z" horiz-adv-x="1000" />

<glyph glyph-name="water" unicode="&#xe805;" d="M984 604h-103c-66 0-130-18-185-54l-429-275v304 68h125c9 0 16 7 16 16v57c0 9-7 16-16 16h-319c-40 0-73-33-73-73v-84-599c0-9 7-16 16-16h235c9 0 16 7 16 16v170l486 312c31 20 66 32 103 36v-43c0-9 7-16 16-16h91c8 0 15 7 15 16v44h6c9 0 16 7 16 16v74c0 8-7 15-16 15z m-37-134h-60v29h14c9 0 16 7 16 16s-7 16-16 16h-20c-52 0-102-15-145-43l-493-316c0 0 0 0-1 0 0 0 0-1 0-1 0 0-1 0-1 0 0 0 0 0 0-1-1 0-1 0-1 0 0 0 0 0 0-1-1 0-1 0-1 0 0 0 0 0 0-1 0 0-1 0-1-1 0 0 0 0 0 0 0 0-1 0-1-1 0 0 0 0 0 0 0-1 0-1 0-1-1 0-1-1-1-1 0 0 0 0 0-1 0 0 0 0 0 0 0-1 0-1 0-1 0 0 0-1 0-1 0 0-1 0-1-1 0 0 0 0 0 0 0-1 0-1 0-1 0 0 0 0 0 0v-163h-203v567h101c9 0 16 7 16 16s-7 16-16 16h-101v68c0 23 18 41 41 41h304v-25h-126-33c-9 0-16-7-16-16s7-16 16-16h17v-52h-24c-8 0-15-7-15-16s7-16 15-16h24v-335c0-9 7-16 16-16s16 7 16 16v9l446 287c50 32 108 49 168 49h88v-42h-2c-1 0-3 0-4-1 0 0 0 0 0 0-9 0-16-7-16-16v-44z m-857 15v-239c0-9-7-16-16-16s-16 7-16 16v239c0 8 7 16 16 16s16-8 16-16z m0-322v-47c0-9-7-16-16-16s-16 7-16 16v47c0 8 7 15 16 15s16-7 16-15z" horiz-adv-x="1000" />

<glyph glyph-name="tv" unicode="&#xe806;" d="M965 692h-930c-19 0-35-16-35-35v-543c0-20 16-36 35-36h369v-35h-191c-9 0-17-8-17-17s8-18 17-18h577c10 0 18 8 18 18s-8 17-18 17h-193v35h368c19 0 35 16 35 36v543c0 19-16 35-35 35z m-403-649h-123v35h123v-35z m252 71l-380 379c-7 7-18 7-24 0-7-6-7-18 0-24l355-355h-730v543h186l118-118c4-4 8-5 13-5s9 1 12 5c7 7 7 18 0 25l-93 93h694l0-543h-151z m-341 16h54c10 0 17 8 17 18s-7 17-17 17h-54c-10 0-17-8-17-17s7-18 17-18z" horiz-adv-x="1000" />

<glyph glyph-name="kettle" unicode="&#xe807;" d="M825 109l171 195c4 5 5 12 3 17-3 6-9 9-15 9h-106c-3 0-6 0-9-2l-107-72c-5 8-10 16-16 24v305c0 50-37 91-85 99 0 22-18 40-40 40h-403c-23 0-41-18-41-40-48-8-85-49-85-99v-305c-59-82-92-182-92-288 0-9 7-16 16-16h807c9 0 16 7 16 16 0 23-2 47-5 69 0 1 0 1 0 1-2 16-5 32-9 47z m-616 574c0 5 4 9 9 9h403c5 0 9-4 9-9v-28c0-5-4-9-9-9h-403c-5 0-9 4-9 9v28z m-32-31c2-21 20-37 41-37h403c21 0 39 16 40 37 31-7 54-35 54-67v-267c-65 71-149 116-240 129v23c23 3 41 23 41 46 0 26-21 47-47 47h-100c-25 0-46-21-46-47 0-23 17-43 40-46v-23c-90-13-173-57-239-129v267c0 32 23 60 53 67z m292-150h-100c-8 0-15 6-15 14 0 9 7 15 15 15h100c9 0 15-6 15-15 0-8-6-14-15-14z m-74-32h49v-19c-8 0-16 1-25 1-8 0-16-1-24-1v19z m-363-462c0 12 1 24 2 36h641c9 0 16 7 16 16s-7 16-16 16h-636c16 86 55 164 110 223h432c8 0 16 7 16 16s-8 15-16 15h-399c66 57 148 90 237 90 88 0 171-32 238-90h-3c-8 0-16-7-16-15s8-16 16-16h36c9-10 18-21 27-33 1-1 1-1 2-2 9-12 17-25 25-38 9-16 18-33 25-50 4-8 13-11 21-8 8 3 12 13 8 21-6 14-12 27-20 40l105 70h66l-154-176c-4-5-5-12-2-18 3-9 5-19 7-29h-26c-9 0-16-7-16-16s7-16 16-16h30c2-12 2-24 3-36h-775z m162 278c6-7 6-17 0-23-25-25-46-55-64-87-2-6-8-9-14-9-2 0-4 1-7 2-8 4-11 13-6 21 18 36 41 68 69 95 6 7 16 7 22 1z m-86-162c-3-9-6-18-8-27-2-7-8-11-15-11-2 0-3 0-4 0-9 3-14 11-11 20 2 9 5 19 8 28 3 8 12 12 20 10 9-3 13-12 10-20z" horiz-adv-x="1000" />

<glyph glyph-name="sunside" unicode="&#xe808;" d="M500 729c-212 0-385-173-385-386 0-212 173-385 385-385s385 173 385 385c0 213-172 386-385 386z m0-749c-200 0-363 163-363 363 0 201 163 364 363 364s363-163 363-364c0-200-163-363-363-363z m497 321l-32 34c-31 32-36 81-12 118l24 38c2 2 2 6 1 9-1 3-3 5-6 7l-47 21c-39 18-61 60-55 103l6 41c1 3 0 6-2 9s-5 4-8 4l-55 3c-40 2-75 29-87 67l-13 42c-1 3-3 5-6 7-3 1-6 1-9 0l-51-19c-11-4-22-6-33-6-26 0-52 11-70 30l-34 35c-2 2-5 3-8 3s-6-1-8-3l-34-35c-18-19-44-30-70-30h0c-11 0-22 2-33 6l-51 19c-3 1-6 1-9 0-3-2-5-4-6-7l-13-42c-12-38-47-65-87-67l-55-3c-3 0-6-2-8-4s-3-6-2-9l6-41c7-43-16-85-55-103l-47-21c-3-2-5-4-6-7-1-3-1-7 1-9l24-38c24-37 19-86-12-118l-32-34c-2-2-3-6-3-9 0-3 2-6 5-8l40-28c36-26 50-72 34-114l-15-39c-1-3-1-6 0-9s5-5 8-6l52-13c41-10 70-45 73-87l3-42c0-3 2-6 4-8 3-2 6-3 9-2l55 8c4 1 9 1 14 1 33 0 65-18 83-47l23-40c2-3 4-4 7-5 3-1 6 0 9 1l44 29c15 10 34 15 52 15s37-5 52-15l44-29c2-1 4-1 6-1 1 0 2 0 3 0 3 1 5 2 7 5l24 40c17 29 49 47 82 47 5 0 10 0 14-1l55-8c3-1 7 0 9 2 2 2 4 5 4 8l3 42c3 42 32 77 73 87l52 13c4 1 6 3 8 6s1 6 0 9l-15 39c-16 42-2 88 34 114l40 28c3 2 5 5 5 8 0 3-1 7-3 9z m-55-27c-44-32-61-89-42-140l11-27-40-10c-50-13-86-56-90-107l-2-30-43 6c-6 1-12 1-18 1-41 0-80-22-102-58l-17-30-35 22c-19 13-41 19-64 19s-45-6-64-19l-34-22-18 30c-22 36-61 58-102 58-6 0-12 0-18-1l-43-6-2 30c-3 51-39 94-89 107l-41 10 11 27c19 51 2 108-42 140l-30 21 23 24c38 40 44 100 15 146l-17 27 35 16c48 22 76 74 68 126l-4 29 42 2c50 3 93 36 108 84l9 30 40-15c13-5 27-7 41-7 0 0 0 0 0 0 32 0 63 13 86 36l26 27 26-27c23-23 54-36 86-36 14 0 28 2 41 7l40 15 9-30c15-48 58-81 108-84l42-2-4-29c-8-52 20-104 68-126l35-16-17-27c-29-46-23-106 15-146l23-24-30-21z" horiz-adv-x="1000" />

<glyph glyph-name="computer" unicode="&#xe809;" d="M954 748h-908c-25 0-46-20-46-46v-595c0-25 21-46 46-46h309l-23-80h-67c-8 0-14-7-14-15s6-14 14-14h78c0 0 0 0 1 0 0 0 0 0 0 0h313c0 0 0 0 0 0 0 0 0 0 0 0h78c8 0 15 6 15 14s-7 15-15 15h-67l-23 80h309c25 0 46 21 46 46v595c0 26-21 46-46 46z m-317-767h-274l23 80h228l23-80z m334 126c0-9-8-16-17-16h-328c0 0 0 0 0 0h-580c-9 0-17 7-17 16v595c0 9 8 17 17 17h908c9 0 17-8 17-17v-595z m-48 579h-846c-8 0-14-7-14-15v-532c0-8 6-15 14-15h846c8 0 14 7 14 15v532c0 8-6 15-14 15z m-15-30v-96h-816v96h816z m-816-503v378h816v-378h-816z m205 441h469c8 0 15 6 15 14s-7 15-15 15h-469c-9 0-15-7-15-15s6-14 15-14z m532 0h31c8 0 15 6 15 14s-7 15-15 15h-31c-8 0-15-7-15-15s7-14 15-14z m-689 0c4 0 8 1 10 4 3 3 5 7 5 10 0 4-2 8-5 11-2 2-6 4-10 4-4 0-8-2-10-4-3-3-5-7-5-11 0-3 2-7 5-10 2-3 6-4 10-4z m47 0c4 0 8 1 10 4 3 3 5 7 5 10 0 4-2 8-5 11-2 2-6 4-10 4-4 0-8-2-10-4-3-3-5-7-5-11 0-3 2-7 5-10 2-3 6-4 10-4z m47 0c4 0 8 1 10 4 3 3 5 7 5 10 0 4-2 8-5 11-2 2-6 4-10 4-4 0-8-2-10-4-3-3-5-7-5-11 0-3 2-7 5-10 2-3 6-4 10-4z m-37-132c-5 6-15 6-20 0-6-6-6-15 0-21l99-99-99-99c-6-6-6-15 0-21 2-3 6-4 10-4s7 1 10 4l110 110c6 6 6 15 0 21l-110 109z m287-215h-156c-8 0-15-6-15-14s7-15 15-15h156c9 0 15 7 15 15s-6 14-15 14z" horiz-adv-x="1000" />

<glyph glyph-name="telephone" unicode="&#xe80a;" d="M678 144c-10 10-25 16-40 16-16 0-32-7-43-18l-70-70-19 11c-42 23-99 55-160 115-61 61-92 118-116 160l-10 18 70 71c24 23 25 60 2 83l-130 130c-10 10-24 15-40 15-16 0-32-6-43-17l-32-32-3-5c-11-15-21-33-28-51-7-18-11-35-13-52-17-139 47-267 221-441 207-207 380-223 428-223 8 0 13 0 14 0 18 3 35 7 52 13 19 8 36 17 51 29l7 6 30 29c23 24 24 61 2 83l-130 130z m112-197l-23-22c-11-11-30-26-57-36-16-6-31-10-46-12-1 0-5 0-10 0-47 0-213 15-413 216-198 197-229 311-216 422 2 16 6 31 12 47 11 27 25 46 36 57l22 23c7 7 17 11 27 11 10 0 18-4 24-9l130-130c14-14 13-37-2-51l-81-81-1-2 4-8c5-7 9-16 14-25 24-43 57-102 120-165 63-63 122-96 165-119 9-6 18-11 25-15l8-5 83 83c7 7 17 11 27 11 9 0 18-3 24-9l130-130c13-14 12-36-2-51z m-369 459l-3-5 6-1c31-8 61-25 84-48 22-22 38-49 46-79l1-4 5 0c2 0 3 0 4 0 3 0 6-1 9-1 3 0 6-1 9-1l6 0-1 6c-10 38-29 74-57 101-27 27-60 46-96 56l-5 1-1-5c-2-7-4-14-7-20z m12 126l0-3 4-1c62-11 118-40 162-84 50-51 81-115 89-187l0-3 10-2c3 0 7 0 10 0 2 0 4 0 7 0l5 0-1 5c-8 80-42 152-98 209-50 50-115 83-186 95l-6 1 1-6c1-8 2-16 3-24z m287 33c-83 84-195 133-314 140l-5 1 1-6c1-8 2-15 4-23l0-3 4-1c109-7 211-53 288-130 76-76 122-177 130-285l1-5 4 1c5 0 10 0 15 1l12 1 0 4c-9 116-59 224-140 305z m280-291c-12 147-76 286-181 390-111 111-259 176-417 182l-4 0-1-4c0-5 0-10 0-15l-1-12 5-1c150-5 290-66 396-172 99-99 160-231 171-371l1-5 4 1c7 1 14 1 21 2l6 0 0 5z" horiz-adv-x="1000" />

<glyph glyph-name="pets" unicode="&#xe80b;" d="M909 748l-97 97c-7 7-17 7-24 0-7-7-7-17 0-24l97-97c34-34 34-89 0-123-16-16-38-25-62-24-23 0-45 9-62 26l-127 127c-47 47-123 47-170 0-48-47-48-124 0-171l45-45c-35 12-73 19-112 19-91 0-177-36-241-100-133-133-133-350 0-483 64-65 150-100 241-100 91 0 177 35 241 100 65 64 100 150 100 241 0 91-35 177-100 242-1 1-3 3-4 4l-146 146c-34 34-34 89 0 123 33 34 88 34 122 0l127-127c23-23 54-36 86-36 32-1 63 11 86 34 47 47 47 124 0 171z m-344-299c-42-4-81-12-120-26 0 0-1 1-2 1-74 24-152 29-228 15 53 39 116 60 182 60 60 0 118-18 168-50z m-347-201c-42 1-84-3-125-13 2 18 7 36 13 53 0 1 0 1 0 1 60 21 113 29 167 25 0-1-1-1-1-1-20-21-38-42-54-65z m89 96c0 0 0 0 0 0-62 9-120 5-184-14 11 22 25 43 42 63 72 21 156 25 230 9-31-16-61-35-88-58z m-217-145c35 9 70 14 106 15-32-57-53-120-60-185-32 51-48 111-46 170z m78-212c2 114 47 221 128 301 81 82 195 127 310 129 3-3 5-6 8-8 12-12 23-25 32-38-229-18-412-198-432-426-12 8-24 18-34 29-4 4-8 8-12 13z m521 301c-103-13-194-55-264-122-73-69-117-161-129-265-17 6-34 13-50 22 12 227 194 407 421 415 9-16 16-32 22-50z m-9-217c-26 57-63 108-109 151 23 9 47 17 72 23 24-30 43-63 58-98-4-26-11-52-21-76z m23 147c-7 12-15 23-23 35 6 1 12 1 18 2 2-12 4-25 5-37z m-176-147c30-33 54-70 73-110-49-44-110-70-175-76 9 77 47 145 102 186z m-137-187c-20 0-41 3-61 7 10 99 53 185 118 248 20-13 39-28 56-44-62-47-103-124-113-211z m236 102c-35 71-88 131-152 177 20 16 41 30 64 43 54-47 96-107 122-174-10-16-22-32-34-46z" horiz-adv-x="1000" />

<glyph glyph-name="events" unicode="&#xe80c;" d="M531 608v87h-62v-87c-201-32-341-185-341-377 0-4 1-8 1-12h-1v-23h2c15-175 146-310 331-341 0 0 8-2 32-5 20-1 32 2 32 2 191 25 329 163 345 344h1v18c0 5 1 11 1 17 0 193-141 346-341 377z m-42-29v-128c-48 0-91-5-130-13 48 73 107 123 130 141z m-43 2c-36-33-85-84-122-152-66-18-115-43-145-61 45 106 141 185 267 213z m-295-350c0 35 6 69 15 101 15 11 66 45 143 69-20-42-35-89-40-142 0-1 0-1 0-2-2-12-2-25-2-38 0 0 0 0 0 0h-115c0 4-1 8-1 12z m22-123c27-17 75-43 139-62 31-55 79-110 144-167-137 26-241 112-283 229z m316-224c-64 52-111 103-144 154 42-10 90-17 143-17 0 0 0 0 1 0v-137z m0 160l0 0c-61 0-115 9-160 21-22 43-35 86-38 131h198v-152z m335 319c-58 30-114 52-166 66-13 23-27 44-42 63-27 37-55 68-79 92 137-23 242-106 287-221z m-312 65c40-1 83-7 129-19 21-39 38-83 46-131 0-1 0-2 1-4 1-8 2-16 2-24 1-10 2-21 2-31h-180v209z m0-232l0 0h179c-2-28-7-55-16-81-1-2-1-4-2-6-1-2-1-4-2-6-5-12-10-24-17-36-50-14-98-21-142-23 0 0 0 152 0 152z m0-299v125c39 1 82 7 127 17-29-46-71-93-127-142z m22-20c62 55 108 112 138 171 50 14 102 35 157 65-43-124-153-213-295-236z m314 342h-133c0 0 0 0 0 0 0 69-17 129-43 182 52-16 106-38 163-71 9-31 14-64 14-99 0-4 0-8-1-12z m-148 426l44 6 19 39 19-39 44-6-32-31 8-43-39 20-39-20 8 43-32 31z m-75 40l35 25 34-25-13 40 34 25h-42l-13 40-14-40h-42l34-25-13-40z m3 57h24l7 23 8-23h24l-19-14 7-23-20 14-19-14 7 23-19 14z m-57 73l-12 9h15l4 14 5-14h15l-12-9 4-14-12 9-12-9 5 14z m-281-9l-23 17h28l9 27 9-27h28l-23-17 9-26-23 16-23-16 9 26z m43-70h33l10 31 10-31h33l-27-19 10-31-26 19-27-19 10 31-26 19z m-100-99l-15 11h18l6 18 6-18h19l-16-11 6-17-15 11-15-11 6 17z m123 26l-16-13 6-19-17 12-17-12 7 19-17 13h21l6 19 7-19h20z" horiz-adv-x="1000" />

<glyph glyph-name="playground" unicode="&#xe80d;" d="M938-119c-7 0-13 6-14 13l-91 880c-1 9-8 15-17 15h-632c-9 0-16-6-17-15l-91-880c-1-8-8-14-16-13-8 1-14 8-13 16l91 880c3 24 22 42 46 42h632c24 0 44-18 46-42l91-880c1-8-5-15-13-16-1 0-1 0-2 0z m-829 0h-94c-8 0-15 7-15 15s7 15 15 15h94c8 0 14-7 14-15s-6-15-14-15z m876 0h-94c-8 0-14 7-14 15s6 15 14 15h94c8 0 15-7 15-15s-7-15-15-15z m-141 814h-688c-8 0-15 7-15 15s7 15 15 15h688c9 0 15-7 15-15s-6-15-15-15z m-234-438c-8 0-15 7-15 15v469c0 9 7 15 15 15s14-6 14-15v-469c0-8-6-15-14-15z m125 0c-8 0-15 7-15 15v469c0 9 7 15 15 15s15-6 15-15v-469c0-8-7-15-15-15z m31-219h-188c-25 0-46 21-46 46s21 46 46 46h188c26 0 46-21 46-46s-20-46-46-46z m-188 63c-9 0-16-8-16-17s7-17 16-17h188c9 0 17 8 17 17s-8 17-17 17h-188z m188 0c-8 0-14 6-14 14v125c0 10-8 17-17 17h-125c-10 0-17-7-17-17v-125c0-8-7-14-15-14s-14 6-14 14v125c0 26 20 46 46 46h125c25 0 46-20 46-46v-125c0-8-7-14-15-14z m-188 47h-31c-8 0-15 6-15 14s7 15 15 15h31c8 0 15-7 15-15s-7-14-15-14z m220 0h-32c-8 0-14 6-14 14s6 15 14 15h32c8 0 14-7 14-15s-6-14-14-14z m-533 109c-8 0-14 7-14 15v469c0 9 6 15 14 15s15-6 15-15v-469c0-8-7-15-15-15z m125 0c-8 0-14 7-14 15v469c0 9 6 15 14 15s15-6 15-15v-469c0-8-6-15-15-15z m32-219h-188c-25 0-46 21-46 46s21 46 46 46h188c25 0 46-21 46-46s-21-46-46-46z m-188 63c-9 0-17-8-17-17s8-17 17-17h188c9 0 16 8 16 17s-7 17-16 17h-188z m188 0c-8 0-15 6-15 14v125c0 10-7 17-17 17h-125c-9 0-16-7-16-17v-125c0-8-7-14-15-14s-15 6-15 14v125c0 26 21 46 46 46h125c26 0 46-20 46-46v-125c0-8-6-14-14-14z m-188 47h-31c-9 0-15 6-15 14s6 15 15 15h31c8 0 15-7 15-15s-7-14-15-14z m219 0h-31c-8 0-15 6-15 14s7 15 15 15h31c8 0 15-7 15-15s-7-14-15-14z" horiz-adv-x="1000" />

<glyph glyph-name="school" unicode="&#xe80e;" d="M516 84v482c0 9-7 16-16 16s-16-7-16-16v-482c0-9 7-16 16-16s16 7 16 16z m468 603c-34 0-77 15-122 30-57 20-121 42-188 42-78 0-125-34-151-62-10-11-17-21-23-31-6 10-13 20-23 31-26 28-73 62-151 62-67 0-131-22-188-42-45-15-88-30-122-30-9 0-16-7-16-16v-650c0-9 7-16 16-16 40 0 85 16 132 32 55 19 117 41 178 41 53 0 96-18 127-52 6-7 16-7 23-1s7 16 1 22c-26 29-73 63-151 63-67 0-131-23-188-42-38-14-75-26-106-30v618c36 3 75 17 116 31 55 19 117 40 178 40 125 0 157-99 159-103 2-7 8-11 15-11s13 4 15 11c1 1 34 103 159 103 61 0 123-21 178-40 41-14 80-28 116-31v-618c-31 4-68 16-106 30-57 19-121 42-188 42-78 0-125-34-151-63-6-6-6-16 1-22 7-6 17-6 23 1 31 34 74 52 127 52 61 0 123-22 178-41 47-16 92-32 132-32 9 0 16 7 16 16v650c0 9-7 16-16 16z m0-714c-34 0-77 15-122 30-57 20-121 42-188 42-73 0-119-30-146-57l-56 0c-27 27-73 57-146 57-67 0-131-22-188-42-45-15-88-30-122-30-9 0-16-7-16-16s7-16 16-16c40 0 85 15 132 32 55 19 117 40 178 40 53 0 96-18 127-52 3-3 8-5 12-5l70 0c4 0 9 2 12 5 31 34 74 52 127 52 61 0 123-21 178-40 47-17 92-32 132-32 9 0 16 7 16 16s-7 16-16 16z" horiz-adv-x="1000" />

<glyph glyph-name="sound" unicode="&#xe80f;" d="M425 732l30 35c-74 38-152 66-229 82-27 6-42-35-15-41 74-16 146-42 214-76z m551-704c-3 168-98 357-205 488l-29-33c38-48 70-100 97-154 45-88 91-198 93-298 1-28 44-31 44-3z m-367 439l30 33c-52 53-111 100-174 141l-31-36c63-39 121-85 173-136 1-1 2-2 2-2z m-476 265c77-17 151-45 222-81l30 35c-76 40-157 70-238 87-27 6-42-36-14-41z m703-668c10-37 17-74 17-109 1-29 45-32 44-3-3 165-94 349-198 480l-29-33c24-32 46-66 66-101 16 0 31-7 42-19 45-54 94-132 68-196-2-7-6-13-10-19z m-233 257c-2-2-3-3-4-5l-12-13c20-27 38-56 55-85l31 36c-18 29-37 57-57 82l-13-14 0-1z m121-215c0 5-3 12-8 19-5-6-12-13-18-21 3-6 6-13 9-20 10 8 16 15 17 22z m-685 544c31-7 61-15 91-25 16 12 36 21 57 26-44 17-89 31-134 40-27 6-42-36-14-41z m695-639c15-47 25-94 26-138 0-28 44-32 43-3 0 49-10 101-24 152-13-5-28-9-45-11z m-379 503c21-14 41-28 61-43 15 8 32 15 51 18-26 22-53 41-81 60l-31-35z m133-210c4 0 7 0 10 0 27 2 50 12 67 26 5 4 9 9 13 13l0 0 17 20 53 62 29 33 44 50 28 33 1 1 59 69-311 151-2 2-11-13-30-35-40-46-30-35-48-56-18-20c-7 36-48 63-96 63-3 0-6 0-10-1-15-1-30-5-43-11-33-15-54-43-52-73 3-40 46-70 97-70 3 0 6 0 10 0 29 2 54 14 71 30l0 0 3 3c3 2 5 5 7 7l21 25 30 35 49 56 30 35 21 24 165-80 105-50-22-26-44-50-28-33-41-47c-7 35-44 60-89 63-2 0-4 0-7 0-3 0-6 0-9 0-16-1-30-5-42-11-34-15-56-43-53-74 3-40 45-70 96-70z m280-67c-6 8-11 15-16 20-4 6-10 8-16 8-6 0-13-2-17-8l-28-33-32-37-35-41c-4 8-10 15-17 21-14 12-32 18-50 18-21 0-43-9-58-27-28-32-24-81 9-108 14-12 32-18 49-18 11 0 23 2 33 7 13 6 28 23 38 34 14 17 37 43 55 65 18 20 32 37 32 37 2-2 3-4 5-6 34-31 41-56 35-76-6-18-21-31-36-40-1-1-2-2-3-2-10-6-11-10-3-10 1 0 3 0 6 1 1 0 3 0 4 0 18 3 33 7 46 12 36 14 50 36 51 62 2 40-27 88-52 121z" horiz-adv-x="1000" />

<glyph glyph-name="view" unicode="&#xe810;" d="M907-73c0 0 0 0 0 0h-585c-1 0-1 0-1 0h-228c0 0 0 0 0 0h-83c-6 0-10 4-10 9s4 10 10 10h78l19 22c-19 8-40 29-40 71 0 35 21 72 59 72 16 0 27-4 34-9l5 21c1 5 5 8 9 8 4 0 8-3 10-7l15-50 55 62c0 0 0 0 0 1l52 58c11 13 27 21 44 22 17 0 33-6 45-18l53-54c1 0 1 0 1 0l12-12 31 39c0 0 0 0 0 1l92 118c12 16 32 24 52 23 20-2 38-13 48-30l86-127 11 33c1 4 5 6 9 6 0 0 0 0 0 0 4 0 8-2 10-6l19-57c10 7 23 12 36 12 39 0 70-38 70-84 0-32-15-61-39-75l27-40h77c6 0 10-4 10-10s-4-9-10-9h-83c0 0 0 0 0 0z m-566 19h548l-26 38c0 1 0 1 0 1l-70 104c0 0-1 0-1 0l-53 79c-1-1-1-2-2-4-4-5-10-8-17-9-14-2-23 7-30 14-8 8-12 12-21 11-3-1-5-5-8-12-5-12-13-29-37-30-23-2-32 14-39 25-5 9-8 13-13 13-8 1-13-3-21-10-8-8-18-17-33-14l-14 4-163-210z m-227 0h203l132 171-7 7c-4-3-9-6-16-10-13-7-22-2-29 2-6 3-11 7-24 4-12-2-18-6-25-12-10-6-21-14-44-14-22 0-37 9-44 19l-57-65c0 0 0 0 0 0l-47-54c0 0 0 0 0 0l-20-23c0 0 0 0 0 0l-22-25z m12 145c-27 0-39-30-39-52 0-39 21-51 32-55v25l-16 26c-3 4-2 10 3 13 4 3 10 2 13-3l18-28c1-1 2-3 2-5v-8l1 1 16 75c-3 4-11 11-30 11z m734-67l15-22c18 10 31 33 31 59 0 35-23 64-51 64-12 0-24-5-33-15 0-1-1-1-2-2-3-3-6-8-8-13l28-41-5 41c0 5 4 10 9 11 5 0 10-3 11-9l5-43 15 19c3 4 9 5 13 1 5-3 5-9 2-13l-30-37z m-684 56l-10-44 18 20-8 27 0-3c0 0 0 0 0 0z m608 56l16-23c1 2 2 3 3 5l-13 38-6-20z m-511-8c3-6 11-15 31-15 17 0 24 5 32 11 8 6 17 12 33 15 20 4 31-2 38-6 5-3 6-4 10-2 5 3 9 5 11 7l-47 47c-8 8-19 12-31 12-11 0-22-6-30-14l-47-55z m297 68c1 0 3 0 4 0 16-2 23-14 28-23 7-11 10-17 21-16 11 1 15 7 20 19 4 9 9 21 23 23 19 3 30-8 38-16 6-7 10-9 13-9 3 0 4 1 4 2 3 4 3 11 2 16l-55 81c0 1 0 1 0 1-7 12-19 19-33 20-14 1-27-4-36-15l-82-106 5-2c5-1 8 2 16 9 7 7 17 16 32 16z m304 159h-132c-19 0-34 15-34 34s15 34 34 34c1 0 2 0 3 0 3 32 30 58 62 58 24 0 45-14 56-34 3 1 7 1 11 1 25 0 47-21 47-46s-22-47-47-47z m-132 49c-8 0-15-7-15-15s7-15 15-15h132c15 0 27 12 27 28 0 15-12 27-27 27-4 0-8-1-12-3-3-1-5-1-8 0-3 1-5 3-6 6-6 17-22 29-41 29-23 0-43-19-43-43 0-3 0-5 1-7 0-4-2-7-5-9-3-3-7-3-10-1-3 2-5 3-8 3z m-339 17h-231c-41 0-74 34-74 75s33 74 74 74c8 0 15-1 23-3 16 36 53 60 93 60 56 0 102-46 102-102 4 1 8 2 13 2 29 0 52-24 52-53s-23-53-52-53z m-231 130c-30 0-55-25-55-55 0-31 25-55 55-55h231c18 0 33 15 33 33 0 18-15 33-33 33-7 0-13-2-18-5-3-2-7-2-11 0-3 2-5 6-4 10 1 4 1 8 1 12 0 46-37 83-83 83-36 0-67-22-79-56-1-2-3-5-5-6-3-1-6-1-8 1-8 3-16 5-24 5z m429-79c-5 0-10 4-10 10v47c0 5 5 9 10 9s10-4 10-9v-47c0-6-5-10-10-10z m100 41c-3 0-5 1-7 3l-34 33c-3 4-3 10 0 14s10 4 14 0l33-33c4-4 4-10 0-14-1-2-4-3-6-3z m-200 0c-2 0-5 1-7 3-3 4-3 10 0 14l34 33c3 4 10 4 13 0 4-4 4-10 0-14l-33-33c-2-2-4-3-7-3z m100 44c-36 0-65 30-65 66s29 65 65 65 65-29 65-65-29-66-65-66z m0 112c-25 0-46-21-46-46 0-26 21-46 46-46s46 20 46 46c0 25-21 46-46 46z m141-56h-47c-5 0-10 4-10 10s5 9 10 9h47c5 0 10-4 10-9s-5-10-10-10z m-235 0h-47c-5 0-10 4-10 10s5 9 10 9h47c5 0 10-4 10-9s-5-10-10-10z m27 66c-2 0-5 1-6 3l-34 33c-3 4-3 10 0 14 4 4 10 4 14 0l33-33c4-4 4-10 0-14-2-2-4-3-7-3z m133 0c-2 0-5 1-7 3-3 4-3 10 0 14l34 33c3 4 10 4 13 0s4-10 0-14l-33-33c-2-2-4-3-7-3z m-66 28c-5 0-10 4-10 10v47c0 5 5 9 10 9s10-4 10-9v-47c0-6-5-10-10-10z" horiz-adv-x="1000" />

<glyph glyph-name="cleaning" unicode="&#xe811;" d="M958 170c0 1-1 1-1 2 0 1 1 1 1 2 0 92-76 167-170 167-87 0-159-66-167-151-13 16-30 27-50 27h-42v583c0 30-19 50-48 50-29 0-48-20-48-50v-583h-42c-17 0-32-8-44-20v177c0 7-5 12-12 12h-229c-7 0-13-5-13-12v-6h-43v-65h43v-2c0-7 6-13 13-13h64v-20c0-27-22-49-49-49-7 0-12-6-12-13 0-7 5-12 12-12 41 0 74 33 74 74v20h31v-130h-110c-41 0-74-34-74-75v-221c0-7 6-12 12-12h281c0 0 1 0 1 0 0 0 0 0 1 0h288c7 0 12 6 12 12v201l35-203c1-6 6-10 12-10h206c6 0 11 4 13 10l55 297c0 2-1 5-2 7 1 2 2 4 2 6z m-477 655c9 0 23-3 23-25v-451h-47v451c0 22 15 25 24 25z m-24-500h47v-108h-47v108z m-339-12v49h205v-147h-72v86c0 6-6 12-13 12l-120 0 0 0z m-2-180h122c7 0 12 6 12 12v45h73v-149l-2 1c-16-27-44-73-120-29-71 41-113 29-134 16v54c0 28 22 50 49 50z m-49-258v124c1 1 2 1 3 2 1 1 35 40 118-9 27-16 50-22 69-22 30 0 51 15 66 32v-127h-256z m546 0h-47v126c0 7-5 12-12 12-7 0-13-6-13-12v-126h-48v126c0 7-5 12-12 12-7 0-12-6-12-12v-126h-49v126c0 7-5 12-12 12-7 0-12-6-12-12v-126h-47v268c0 27 19 49 42 49h42 96 42c23 0 42-22 42-49v-268l0 0z m302 188l0 0c-9-17-24-45-51-52-18-4-40 2-66 19-69 46-112 32-133 17l-15 90c36-16 96-21 138-21 43 0 105 5 141 22l-14-75z m18 107c-2-8-49-29-145-29-96 0-142 21-145 28 3 9 49 30 145 30 96 0 143-21 145-29z m-145 146c71 0 129-50 142-115-36 17-98 22-142 22-43 0-106-5-142-22 13 65 72 115 142 115z m92-441h-186l-24 145c1 2 34 44 114-10 25-17 48-25 68-25 7 0 13 1 19 2 14 4 24 12 34 21l-25-133z" horiz-adv-x="1000" />

<glyph glyph-name="heating" unicode="&#xe812;" d="M606 43c-5 49-39 91-88 99 0 114 0 228 0 341 0 24-36 24-36 0 0-113 0-227 0-341-50-9-88-53-88-104 0-57 45-104 101-107 60-2 105 44 111 101 0 2 1 4 0 6 1 2 0 3 0 5z m-176-5c0 90 136 90 140 0-4-91-140-91-140 0z m146 163c0 193 0 385 0 578 0 3-1 6-2 8-16 84-134 84-150 0-1-2-2-5-2-8 0-24 0-49 0-73-15 0-31 0-47 0-23 0-23-36 0-36 16 0 32 0 47 0 0-20 0-41 0-61-15 0-31 0-47 0-23 0-23-36 0-36 16 0 32 0 47 0 0-20 0-40 0-61-15 0-31 0-47 0-23 0-23-36 0-36 16 0 32 0 47 0 0-20 0-40 0-61-15 0-31 0-47 0-23 0-23-36 0-36 16 0 32 0 47 0 0-20 0-40 0-60-15 0-31 0-47 0-23 0-23-37 0-37 16 0 32 0 47 0 0-27 0-55 0-82-74-38-118-116-103-201 16-85 94-149 181-149 87 0 165 64 181 149 16 86-30 165-105 202z m68-202c-16-65-76-113-144-113-66 0-125 45-142 109-20 72 18 147 87 176 8 4 13 9 13 18 0 196 0 392 0 587l0 0c5 53 77 53 81 0l0 0c1-195 1-391 1-586 0-9 5-15 13-18 68-27 108-100 91-173z" horiz-adv-x="1000" />

<glyph glyph-name="elevator" unicode="&#xe813;" d="M955-150h-910c-8 0-14 6-14 14v972c0 8 6 14 14 14h910c8 0 14-6 14-14v-972c0-8-6-14-14-14z m-155 27h142v946h-883v-946h141v817c0 8 6 14 14 14h573c7 0 13-6 13-14v-817z m-286 0h259v804h-259v-804z m-287 0h259v804h-259v-804z m-54 298h-83c-7 0-13 6-13 13v143c0 8 6 14 13 14h83c8 0 14-6 14-14v-143c0-7-6-13-14-13z m-69 27h55v116h-55v-116z m28 15c-8 0-14 6-14 14v1c0 8 6 14 14 14s13-6 13-14v-1c0-8-6-14-13-14z m0 59c-8 0-14 6-14 14v1c0 7 6 13 14 13s13-6 13-13v-1c0-8-6-14-13-14z m658 477h-1c-8 0-14 6-14 13s6 14 14 14h1c7 0 13-6 13-14s-6-13-13-13z m-76 0h-1c-7 0-13 6-13 13s6 14 13 14h1c8 0 14-6 14-14s-6-13-14-13z m-71 0h-1c-8 0-14 6-14 13s6 14 14 14h1c7 0 13-6 13-14s-6-13-13-13z m-72 0h-1c-7 0-13 6-13 13s6 14 13 14h1c8 0 14-6 14-14s-6-13-14-13z m-71 0h-1c-7 0-14 6-14 13s7 14 14 14h1c8 0 14-6 14-14s-6-13-14-13z m-71 0h-1c-8 0-14 6-14 13s6 14 14 14h1c7 0 13-6 13-14s-6-13-13-13z m-71 0h-2c-7 0-13 6-13 13s6 14 13 14h2c7 0 13-6 13-14s-6-13-13-13z m-72 0h-1c-8 0-14 6-14 13s6 14 14 14h1c8 0 14-6 14-14s-6-13-14-13z m-71 0h-1c-8 0-14 6-14 13s6 14 14 14h1c8 0 14-6 14-14s-6-13-14-13z" horiz-adv-x="1000" />

<glyph glyph-name="microwave" unicode="&#xe814;" d="M916 707h-832c-46 0-84-38-84-85v-505c0-47 38-85 84-85h9v-27c0-7 5-12 12-12h116c7 0 12 5 12 12v27h535v-27c0-7 5-12 11-12h117c6 0 11 5 11 12v27h9c46 0 84 38 84 85v505c0 47-38 85-84 85z m-706-691h-94v16h94v-16z m674 0h-94v16h94v-16z m94 101c0-34-28-62-62-62h-832c-34 0-61 28-61 62v505c0 34 27 62 61 62h832c34 0 62-28 62-62v-505z m-223 516h-639c-23 0-41-19-41-41v-445c0-22 18-41 41-41h639c23 0 41 19 41 41v445c0 22-18 41-41 41z m19-486c0-10-8-18-19-18h-639c-11 0-19 8-19 18v445c0 10 8 18 19 18h639c11 0 19-8 19-18v-445z m-43 268c-7 0-12-5-12-12v-40c0-6 5-11 12-11 6 0 11 5 11 11v40c0 7-5 12-11 12z m-34 162h-22c-6 0-11-5-11-11 0-6 5-11 11-11h22c12 0 22-10 22-22v-87c0-6 5-11 12-11 6 0 11 5 11 11v87c0 24-20 44-45 44z m-71-22h13c7 0 12 5 12 11 0 6-5 11-12 11h-13c-6 0-11-5-11-11 0-6 5-11 11-11z m258-276c-37 0-67-29-67-66 0-37 30-67 67-67 37 0 66 30 66 67 0 37-29 66-66 66z m0-110c-24 0-44 20-44 44 0 24 20 44 44 44 24 0 44-20 44-44 0-24-20-44-44-44z m-46 150h92c6 0 11 5 11 12v240c0 6-5 11-11 11h-92c-6 0-12-5-12-11v-240c0-7 6-12 12-12z m11 121h70v-43h-70v43z m70 22h-70v43h70v-43z m-70-120v32h70v-32h-70z m70 218v-32h-70v32h70z m-213-370h-541c-6 0-11-5-11-11 0-6 5-11 11-11h541c6 0 11 5 11 11 0 6-5 11-11 11z" horiz-adv-x="1000" />

<glyph glyph-name="kitchen" unicode="&#xe815;" d="M704 75h-32c-8 0-14-6-14-15s6-14 14-14h32c8 0 14 6 14 14s-6 15-14 15z m250 329h-79v36c18 6 31 23 31 43 0 24-18 44-41 46-61 52-182 87-319 93v34h1c25 0 46 21 46 46s-21 46-46 46h-94c-25 0-46-20-46-46s21-46 46-46h1v-34c-137-6-258-41-318-93-24-2-42-22-42-46 0-20 13-37 31-43v-36h-79c-25 0-46-21-46-46s21-46 46-46h31c27 0 48-22 48-48v-204c0-59 49-108 109-108h532c60 0 109 49 109 108v204c0 26 21 48 48 48h31c25 0 46 21 46 46s-21 46-46 46z m-454 190c127 0 243-25 313-65h-626c70 40 186 65 313 65z m-64 108c0 9 8 17 17 17h94c9 0 17-8 17-17s-8-16-17-16h-94c-9 0-17 7-17 16z m47-46h34v-33c-6 0-11 0-17 0s-11 0-17 0v33z m-343-156h720c9 0 17-8 17-17s-8-17-17-17h-720c-9 0-17 8-17 17s8 17 17 17z m-63-159h-31c-9 0-17 8-17 17s8 17 17 17h79v-50c-13 10-30 16-48 16z m689-360h-532c-39 0-71 28-78 65h454c8 0 14 6 14 14s-6 15-14 15h-455v362h690v-362h-79c-8 0-14-6-14-15s6-14 14-14h78c-7-37-39-65-78-65z m188 360h-31c-18 0-35-6-48-16v50h79c9 0 17-8 17-17s-8-17-17-17z m-156 2c8 0 14 7 14 15v31c0 8-6 15-14 15s-15-7-15-15v-31c0-8 6-15 15-15z m0-172c8 0 14 7 14 15v109c0 8-6 15-14 15s-15-7-15-15v-109c0-8 6-15 15-15z" horiz-adv-x="1000" />

<glyph glyph-name="gas" unicode="&#xe816;" d="M852 850h-704c-39 0-70-31-70-69v-862c0-38 31-69 70-69h704c39 0 70 31 70 69v862c0 38-31 69-70 69z m-148-767c-9 0-15-7-15-15v-32h-174v174h32c8 0 15 7 15 15s-7 14-15 14h-32v175h174v-33c0-8 6-14 15-14s14 6 14 14v33h174v-175h-32c-8 0-15-6-15-14s7-15 15-15h32v-174h-174v32c0 8-6 15-14 15z m-393-47v79c0 8-6 15-14 15s-15-7-15-15v-79h-174v174h79c8 0 15 7 15 15s-7 14-15 14h-79v175h174v-80c0-8 6-14 15-14s14 6 14 14v80h174v-175h-79c-8 0-15-6-15-14s7-15 15-15h79v-174h-174z m581 745v-134h-79c-8 0-15-7-15-15s7-15 15-15h79v-174h-174v79c0 8-6 15-14 15s-15-7-15-15v-79h-174v174h79c8 0 15 7 15 15s-7 15-15 15h-79v174h174v-80c0-8 6-14 15-14s14 6 14 14v80h134c22 0 40-18 40-40z m-744 40h134v-33c0-8 6-14 15-14s14 6 14 14v33h174v-174h-32c-8 0-15-7-15-15s7-15 15-15h32v-174h-174v32c0 8-6 15-14 15s-15-7-15-15v-32h-174v174h32c8 0 15 7 15 15s-7 15-15 15h-32v134c0 22 18 40 40 40z m704-942h-704c-22 0-40 18-40 40v88h784v-88c0-22-18-40-40-40z m-555 629c68 0 124 55 124 124s-56 124-124 124-125-56-125-124 56-124 125-124z m0 219c52 0 94-43 94-95s-42-95-94-95-95 43-95 95 42 95 95 95z m531-502c0 68-56 124-124 124s-125-56-125-124 56-124 125-124 124 55 124 124z m-124-95c-53 0-95 42-95 95s42 95 95 95 94-43 94-95-42-95-94-95z m-407 172c-43 0-78-35-78-77s35-77 78-77 77 34 77 77-35 77-77 77z m0-125c-27 0-48 21-48 48s21 48 48 48 47-22 47-48-21-48-47-48z m407 532c-43 0-78-35-78-77s35-77 78-77 77 34 77 77-35 77-77 77z m0-125c-27 0-48 21-48 48s21 48 48 48 48-22 48-48-22-48-48-48z m-267-595c-25 0-46-21-46-46s21-46 46-46 46 21 46 46-20 46-46 46z m0-63c-9 0-16 8-16 17s7 17 16 17 17-8 17-17-7-17-17-17z m-125 63c-25 0-46-21-46-46s21-46 46-46 46 21 46 46-20 46-46 46z m0-63c-9 0-16 8-16 17s7 17 16 17 17-8 17-17-8-17-17-17z m376 63c-25 0-46-21-46-46s21-46 46-46 46 21 46 46-21 46-46 46z m0-63c-9 0-17 8-17 17s8 17 17 17 17-8 17-17-8-17-17-17z m-125 63c-26 0-46-21-46-46s20-46 46-46 46 21 46 46-21 46-46 46z m0-63c-9 0-17 8-17 17s8 17 17 17 16-8 16-17-7-17-16-17z" horiz-adv-x="1000" />

<glyph glyph-name="family" unicode="&#xe817;" d="M555 112c11 0 21-9 21-21v-93c0-12-10-21-21-21s-22 9-22 21v93c0 12 10 21 22 21z m111-2c0-12 9-21 21-21s21 9 21 21c0 85-69 153-153 153-85 0-154-68-154-153 0-12 9-21 21-21s21 9 21 21c0 61 50 111 112 111 61 0 111-50 111-111z m-3 557c0 28 6 55 16 80 1 1 1 2 2 3 26 60 79 100 140 100 61 0 113-41 140-100 0-1 1-2 1-3 10-24 16-52 16-80 0-101-71-183-157-183-87 0-158 82-158 183z m68 88c29-5 59-7 90-7 30 0 60 2 89 7-21 32-53 53-89 53-36 0-69-21-90-53z m-25-88c0-78 51-141 115-141 63 0 114 63 114 141 0 17-2 33-7 49-34-7-70-11-107-11-37 0-74 4-108 11-5-16-7-32-7-49z m-293-641c-9 8-22 7-30-3-7-9-6-22 3-29l49-41c4-3 8-4 13-4 6 0 12 2 17 7 7 9 6 23-3 30l-49 40z m-243 32v205c0 78 59 141 132 141 20 0 39-5 57-14 11-5 24-1 29 9 6 10 1 23-9 29-24 12-50 19-77 19-96 0-175-83-175-184v-205c0-52 22-102 59-137 4-3 9-5 15-5 5 0 11 2 15 6 8 9 8 22-1 30-29 27-45 66-45 106z m685-166h-185c0 1 0 1 0 2 0 11-9 21-21 21h-189c-12 0-21-10-21-21 0-1 0-1 0-2h-185c-12 0-21-9-21-21s9-21 21-21h601c12 0 22 9 22 21s-10 21-22 21z m-48 555c-27 0-53-7-77-19-10-6-14-19-9-29 5-10 18-14 29-9 18 9 37 14 57 14 73 0 132-63 132-141v-205c0-40-16-79-45-106-9-8-9-21-1-30 4-4 10-6 16-6 5 0 10 2 14 5 37 35 59 85 59 137v205c0 101-79 184-175 184z m-374-10c0 80 55 145 122 145s121-65 121-145-55-144-121-144-122 65-122 144z m43 0c0-56 35-101 79-101 43 0 78 45 78 101s-35 102-78 102c-44 0-79-45-79-102z m-443 141c-12 18-21 46-8 61 7 8 19 11 29 6 14-6 22-5 27-3 24 9 42 52 57 87 7 16 14 31 21 43 29 49 77 78 128 78 60 0 112-39 138-95 1-2 2-3 2-4 11-25 18-54 18-84 0-101-71-183-158-183-41 0-80 19-109 52-1-1-2-1-2-1-90-27-132 26-143 43z m233 53c-10-26-22-55-49-75 20-19 45-30 70-30 64 0 115 63 115 141 0 19-3 38-9 55-94-8-110-47-127-91z m-103-55c40 12 50 38 63 71 18 45 40 101 146 115-21 28-51 46-85 46-36 0-70-22-92-58-6-9-12-23-18-38-18-42-40-94-81-109-8-4-17-5-26-5 4-5 9-10 15-15 20-14 46-17 78-7z m498-627c5 0 10 1 13 4l49 41c9 7 10 20 3 29-8 10-21 11-30 3l-49-40c-9-7-10-21-2-30 4-5 10-7 16-7z" horiz-adv-x="1000" />

<glyph glyph-name="aircondition" unicode="&#xe818;" d="M955-12h-910c-25 0-45 21-45 46v632c0 25 20 46 45 46h910c25 0 45-21 45-46v-632c0-25-20-46-45-46z m-910 695c-9 0-17-7-17-17v-632c0-10 8-17 17-17h910c9 0 17 7 17 17v632c0 10-8 17-17 17h-910z m849-569h-247c-8 0-14 6-14 14s6 14 14 14h247c8 0 14-6 14-14s-6-14-14-14z m-566 0c-130 0-236 106-236 236s106 236 236 236 236-106 236-236-106-236-236-236z m0 444c-114 0-207-93-207-208s93-208 207-208 208 94 208 208-93 208-208 208z m62-385c0 0 0 0 0 0-24 0-46 11-63 31-22 28-20 74-18 95-5 2-9 4-14 8-4-1-18-4-29-17-7-7-8-14-8-23-1-11-2-26-18-38-12-10-27-13-41-10-20 4-36 21-50 48-24 51-19 84-10 103 10 22 29 38 54 44 38 10 82-15 98-25 3 3 6 6 10 8 0 0 0 0 0 0 0 1 7 16 0 36-3 10-9 13-17 18-9 6-21 14-25 33-3 15 1 30 11 41 13 16 35 23 66 21 56-2 83-22 95-39 15-19 20-43 14-69-9-35-47-61-65-72 2-5 3-10 3-16 0-2-1-4-1-7 0 0 0 0 0 0 1 0 8-15 28-22 10-3 17 0 25 3 11 3 24 8 42 0 14-7 23-20 26-34 4-20-4-42-23-65-36-43-68-52-90-52z m-53 123c-2-19-2-56 12-74 7-8 21-21 41-21 0 0 0 0 0 0 22 0 45 14 68 42 13 16 20 31 17 41-1 8-7 13-11 14-6 4-10 2-19-1-10-4-24-9-43-2-15 4-26 12-33 19-8-9-19-15-32-18z m-125 92c-4 0-8 0-11-1-10-3-28-10-36-29-9-19-6-46 10-78 9-19 20-31 30-34 8-1 14 2 18 5 5 4 6 8 6 18 1 11 2 25 16 40 11 12 23 19 32 22-2 6-3 12-3 19 0 5 1 10 2 15-13 9-41 23-64 23z m116-12c-14 0-26-12-26-26s12-26 26-26c15 0 26 12 26 26s-11 26-26 26z m4 28c13-1 24-6 33-14 17 10 47 32 52 55 2 10 4 29-8 45-13 17-39 27-74 28-21 1-37-3-44-11-5-6-5-14-4-18 1-6 4-9 12-14 9-6 22-14 29-33 5-14 5-28 4-38z m562-201h-247c-8 0-14 6-14 14s6 14 14 14h247c8 0 14-6 14-14s-6-14-14-14z m0 89h-247c-8 0-14 6-14 14s6 14 14 14h247c8 0 14-6 14-14s-6-14-14-14z m0 88h-247c-8 0-14 7-14 14s6 15 14 15h247c8 0 14-7 14-15s-6-14-14-14z m0 89h-247c-8 0-14 6-14 14s6 14 14 14h247c8 0 14-6 14-14s-6-14-14-14z m0 89h-247c-8 0-14 6-14 14s6 14 14 14h247c8 0 14-6 14-14s-6-14-14-14z" horiz-adv-x="1000" />

<glyph glyph-name="coffeemachine" unicode="&#xe819;" d="M809 147c1 0 22 0 33 0 81 0 147 56 147 126 0 69-66 126-147 126-9 0-18 0-26 0v25c0 9-7 17-16 17-10 0-543 0-679 0-9 0-16-7-16-16v-218c0-109 55-184 161-222-15-7-26-23-26-41 0-4 1-8 2-12h-165c-37 0-66-21-66-48v-17c0-10 8-17 17-17h865c9 0 17 7 17 17v17c0 27-29 48-66 48h-165c1 4 2 8 2 12 0 18-11 34-26 41 85 30 137 85 154 162z m33 219c63 0 114-42 114-93s-51-93-114-93c-10 0-19 0-28 0 1 9 2 18 2 27v97c6 0 23 0 28 0 22 0 40-14 40-31 0-11-8-22-22-28-8-3-12-13-9-21 3-7 9-11 15-11 3 0 5 1 7 2 26 10 42 33 42 58 0 36-33 64-73 64-5 0-21 0-28 0v29c8 0 17 0 26 0z m-234-434c-9 0-17-7-17-16s8-17 17-17h236c20 0 33-9 33-15v-1h-833v1c0 6 13 15 33 15h412c9 0 16 8 16 17s-7 16-16 16h-204c-7 0-12 6-12 12 0 7 5 12 12 12h351c6 0 12-5 12-12 0-6-6-12-12-12h-28z m-148 58c-213 0-322 73-322 217v202c0 0 624 0 645 0l0-202c0-144-109-217-323-217z m-118 534c-5-8-3-18 5-23 3-2 6-3 9-3 5 0 11 3 14 8 2 4 64 101 6 175-40 51 17 121 18 122 5 7 4 17-3 23-7 6-17 5-23-2-1-1-19-22-30-52-16-42-12-81 12-111 43-55-8-136-8-137z m233 0c-5-8-3-18 5-23 2-2 5-3 9-3 5 0 10 3 13 8 3 4 65 101 7 175-40 51 16 121 17 122 6 7 5 17-2 23-7 6-17 5-23-2-1-1-19-22-30-52-16-42-12-81 12-111 43-55-8-136-8-137z m-120-19c-6-7-5-17 2-23 3-2 7-4 11-4 4 0 9 3 12 7 1 1 22 26 33 62 16 50 7 97-25 135-47 57 17 140 18 141 5 7 4 18-3 24-7 5-18 4-23-3-4-5-82-106-18-183 60-71-4-152-7-156z" horiz-adv-x="1000" />

<glyph glyph-name="dishwasher" unicode="&#xe81a;" d="M339 33h51c2-2 4-2 7-2 3 0 5 0 7 2h258c27 0 49 22 49 51v537c0 28-22 51-49 51h-323c-27 0-49-23-49-51v-537c0-29 22-51 49-51z m-19 588c0 12 8 21 19 21h323c11 0 19-9 19-21v-537c0-12-8-21-19-21h-250v225c0 8-7 15-15 15-8 0-15-7-15-15v-225h-43c-11 0-19 9-19 21v537l0 0z m464 229h-568c-39 0-71-33-71-74v-852c0-41 32-74 71-74h568c39 0 71 33 71 74v852c0 41-32 74-71 74z m-568-30h568c23 0 41-20 41-44v-25h-650v25c0 24 19 44 41 44z m609-99v-754h-650v754h650z m-41-841h-568c-22 0-41 20-41 44v13h650v-13c0-24-18-44-41-44z" horiz-adv-x="1000" />

<glyph glyph-name="wheelchair" unicode="&#xe81b;" d="M919-122c0-15-13-28-28-28h-89c0 0-1 0-1 0-3 0-7 1-10 2-1 0-2 1-3 1-6 3-10 8-13 13 0 2-1 4-1 5l-89 319-264 0c-3 0-6 1-9 1-4 2-7 4-10 6-4 3-6 7-8 11-1 2-2 5-2 8l-39 320c0 1 0 2 0 3-1 15 10 28 25 29 2 1 3 1 4 1h5c1 0 2 0 2 0 70 0 78-2 125-43l5-4c0 0 1-1 1-1l189-175h44c16 0 29-12 29-28s-13-28-29-28h-55c-1 0-1 0-2 0-3 0-5 0-8 1 0 0 0 0 0 0 0 0 0 0 0 0-3 1-6 3-8 5 0 0 0 0 0 0 0 0 0 0 0 0-1 0-1 0-1 0v0c0 1 0 1 0 1l-197 182-5 5c-19 16-27 22-34 25-6 2-16 3-30 3l32-265 262-1c13 0 24-8 27-21l89-318h68c15 0 28-13 28-29z m-274 166c-14 8-31 3-39-11-45-78-128-126-218-126-138 0-250 112-250 250 0 103 64 197 160 234 14 5 22 22 16 36-6 15-22 22-37 17-57-22-106-61-141-111-36-52-55-113-55-176 0-169 138-307 307-307 110 0 213 59 267 155 8 14 3 31-10 39z m-382 688c0 65 53 118 118 118 66 0 119-53 119-118s-53-118-119-118c-65 0-118 53-118 118z m57 0c0-34 28-62 61-62 34 0 62 28 62 62s-28 61-62 61c-33 0-61-27-61-61z" horiz-adv-x="1000" />

<glyph glyph-name="garage" unicode="&#xe81c;" d="M780 257c-12 97-66 169-132 169h-295c-67 0-121-72-133-169-42-24-64-70-64-123 0-33 9-64 26-88v-107h140v54h356v-54h140v107c17 24 26 55 26 88 0 53-22 99-64 123z m-505-169c-25 0-46 21-46 46 0 25 21 46 46 46 25 0 46-21 46-46 0-25-21-46-46-46z m16 187c-9 0-17-1-25-2 13 64 47 111 86 111h296c39 0 73-47 86-111-4 0-9 0-13 1 0 0 0 1 0 1 0 40-33 73-73 73-41 0-74-33-74-73h-283z m342-182h-266c-8 0-14 6-14 14 0 8 6 14 14 14h266c8 0 14-6 14-14 0-8-6-14-14-14z m0 40h-266c-8 0-14 7-14 14 0 8 6 14 14 14h266c8 0 14-6 14-14 0-7-6-14-14-14z m-31 142c0 25 21 45 46 45 25 0 45-20 45-45h-91z m123-187c-25 0-46 21-46 46 0 25 21 46 46 46s46-21 46-46c0-25-21-46-46-46z m275 673v-822h-28v794h-944v-794h-28v822h1000z m-953-48h906v-56h-906l0 56 0 0z m0-78h906v-56h-906l0 56 0 0z m0-78h906v-56h-906l0 56 0 0z" horiz-adv-x="1000" />

<glyph glyph-name="park" unicode="&#xe81d;" d="M792 850h-584c-115 0-208-93-208-208v-584c0-115 93-208 208-208h584c115 0 208 93 208 208v584c0 115-93 208-208 208z m170-792c0-94-76-170-170-170h-584c-94 0-170 76-170 170v584c0 94 76 170 170 170h584c94 0 170-76 170-170v-584z m-441 626h-191c-30 0-55-25-55-55v-557c0-31 25-56 55-56 31 0 56 25 56 56v184h135c112 0 204 92 204 205v18c0 113-92 205-204 205z m93-223c0-52-42-94-93-94h-135v206h135c51 0 93-42 93-94v-18z" horiz-adv-x="1000" />

<glyph glyph-name="breakfast" unicode="&#xe81e;" d="M326 43c0-10-8-18-18-18h-6c-10 0-18 8-18 18s8 19 18 19h6c10 0 18-8 18-19z m-18 161h-6c-10 0-18-8-18-18s8-18 18-18h6c10 0 18 8 18 18s-8 18-18 18z m-122-107h5c10 0 18 8 18 18s-8 18-18 18h-5c-11 0-19-8-19-18s8-18 19-18z m34 71h5c10 0 18 8 18 18s-8 18-18 18h-5c-10 0-18-8-18-18s8-18 18-18z m-29 108h-5c-11 0-19-8-19-19s8-18 19-18h5c10 0 18 8 18 18s-8 19-18 19z m173-333c0-10-8-18-19-18h-295c-10 0-18 8-18 18v455c0 1 0 1 0 2l51 434c1 9 9 16 19 16h531c9 0 17-7 18-16l14-118c2-10-5-20-15-21-10-1-20 6-21 16l-12 103h-179v-189c0-7-3-12-8-16-6-3-12-4-18-1l-58 28-58-28c-6-3-12-2-18 1-5 4-8 9-8 16v189h-152l-50-417v-436h277c11 0 19-8 19-18z m-58 711l40 19c5 2 11 2 16 0l40-19v160h-96v-160z m399-162c-5-9-2-20 6-25 3-2 7-3 10-3 6 0 12 3 15 8 26 41 3 75-13 100-17 25-25 40-13 59 5 9 3 20-6 26-8 5-19 2-25-6-25-41-3-75 14-99 17-26 25-40 12-60z m-70-25c3-2 7-3 10-3 6 0 12 3 15 8 26 41 3 75-13 100-17 25-25 40-13 59 5 9 3 20-6 26-8 5-20 2-25-6-25-41-3-75 14-99 17-26 25-40 12-60-5-9-2-20 6-25z m130-128h-5c-10 0-18-8-18-18s8-18 18-18h5c10 0 19 8 19 18s-9 18-19 18z m-92 21h-6c-10 0-18-8-18-18s8-18 18-18h6c10 0 18 8 18 18s-8 18-18 18z m186-229c-10 0-18-8-18-18 0-78-64-142-142-142-10 0-18-8-18-18s8-18 18-18c98 0 178 80 178 178 0 10-8 18-18 18z m109 122v-148c0-141-114-255-255-255h-87c-140 0-255 114-255 255v148c0 10 8 19 18 19h24c31 91 136 157 257 157s225-66 257-157h23c10 0 18-9 18-19z m-516 19h436c-31 71-119 120-218 120s-187-49-218-120z m480-37h-18c-1 0-1 0-1 0h-486c0 0-1 0-1 0h-18v-130c0-120 98-219 218-219h87c121 0 219 99 219 219v130z m-712-210h5c10 0 18 8 18 18s-8 19-18 19h-5c-10 0-18-8-18-19s8-18 18-18z m360 314h-6c-10 0-18-8-18-18s8-18 18-18h6c10 0 18 8 18 18s-8 18-18 18z m-321-242c11 0 19 8 19 18s-8 18-19 18h-5c-10 0-18-8-18-18s8-18 18-18h5z m-116 107h-6c-10 0-18-8-18-18s8-18 18-18h6c10 0 18 8 18 18s-8 18-18 18z m0-142h-6c-10 0-18-8-18-19s8-18 18-18h6c10 0 18 8 18 18s-8 19-18 19z" horiz-adv-x="1000" />

<glyph glyph-name="bathtub" unicode="&#xe81f;" d="M1000 447c0 29-24 53-53 53h-894c-29 0-53-24-53-53 0-22 13-40 32-49-2-26-3-87-3-95 0-119 76-220 182-259-11-8-18-22-18-37 0-25 21-46 47-46 25 0 46 21 46 46 0 8-2 16-5 22 8-1 16-1 23-1h383c8 0 16 0 24 1-4-6-6-14-6-22 0-25 21-46 47-46 26 0 47 21 47 46 0 15-8 29-19 37 106 39 182 140 182 259 0 6 0 65-2 93 23 5 40 26 40 51z m-760-461c-12 0-22 10-22 21 0 12 10 22 22 22 12 0 21-10 21-22 0-11-9-21-21-21z m512 0c-12 0-21 10-21 21 0 12 9 22 21 22 12 0 21-10 21-22 0-11-9-21-21-21z m-65 67h-383c-137 0-249 112-249 250 0 13 1 67 2 91h878c1-24 2-77 2-91 0-138-112-250-250-250z m260 366h-894c-15 0-28 13-28 28 0 15 13 28 28 28h894c15 0 28-13 28-28 0-15-13-28-28-28z m-807 146c25 0 44 20 44 44 0 24-19 44-44 44-24 0-44-20-44-44 0-24 20-44 44-44z m0 63c11 0 19-9 19-19 0-10-8-19-19-19-10 0-18 9-18 19 0 10 8 19 18 19z m104 23c24 0 44 20 44 44 0 25-20 44-44 44-24 0-44-19-44-44 0-24 20-44 44-44z m0 63c10 0 19-8 19-19 0-10-9-18-19-18-10 0-19 8-19 18 0 11 9 19 19 19z m94-180c24 0 44 20 44 44 0 24-20 44-44 44-24 0-44-20-44-44 0-24 20-44 44-44z m0 62c10 0 18-8 18-18 0-10-8-19-18-19-10 0-19 9-19 19 0 10 9 18 19 18z" horiz-adv-x="1000" />

<glyph glyph-name="kindergarten" unicode="&#xe820;" d="M500-100c-240 0-435 181-435 403 0 55 12 109 36 159-62 30-101 91-101 160 0 98 80 178 178 178 76 0 144-49 168-120 49 17 101 26 154 26 53 0 105-9 154-26 24 71 92 120 168 120 98 0 178-80 178-178 0-69-39-130-101-160 24-50 36-104 36-159 0-222-195-403-435-403z m-322 877c-85 0-155-69-155-155 0-63 38-119 98-143 3-1 5-4 6-7 1-3 1-6 0-9-26-50-39-104-39-160 0-209 185-380 412-380s412 171 412 380c0 56-13 110-39 160-1 3-1 6 0 9 1 3 3 6 6 7 60 24 98 80 98 143 0 86-69 155-155 155-70 0-131-47-149-115-1-3-3-6-6-8-3-1-6-1-9 0-50 19-103 29-158 29-54 0-107-10-157-29-4-1-7-1-10 0-3 2-5 5-6 8-18 68-79 115-149 115z m321-814c-137 0-249 89-249 198s112 199 249 199 248-89 248-199c0-86-70-160-167-187-2-2-4-2-6-2-24-6-49-9-75-9z m-52 28c17-3 34-5 52-5s35 2 52 5l-52 51-52-51z m64 73l66-67c86 25 147 89 147 164 0 97-101 176-225 176s-225-79-225-176c0-75 61-139 147-164l66 67v90c-34 4-60 28-60 57 0 31 32 57 72 57s71-26 71-57c0-29-26-53-59-57v-90z m-12 181c-26 0-48-16-48-34s22-35 48-35c26 0 48 16 48 35s-22 34-48 34z m160 135c-30 0-54 25-54 55s24 54 54 54 55-24 55-54-24-55-55-55z m0 86c-17 0-31-14-31-31s14-32 31-32 32 14 32 32-14 31-32 31z m-321-86c-30 0-54 25-54 55s24 54 54 54 55-24 55-54-25-55-55-55z m0 86c-17 0-31-14-31-31s14-32 31-32 32 14 32 32-14 31-32 31z m513 42c-3 0-7 2-9 5-34 43-79 80-132 107-4 2-6 7-6 11 4 62 56 110 118 110 65 0 119-53 119-119 0-52-36-99-87-114-1 0-2 0-3 0z m-123 129c50-27 94-62 127-104 37 14 62 50 62 89 0 53-42 96-95 96-47 0-87-35-94-81z m-585-127c-1 0-2 0-3 0-48 17-80 62-80 112 0 66 53 119 118 119 61 0 112-46 118-106 0-5-2-10-7-12-54-26-102-64-137-109-2-3-5-4-9-4z m35 208c-52 0-95-43-95-96 0-37 22-72 57-87 34 43 80 79 132 105-9 45-48 78-94 78z" horiz-adv-x="1000" />

<glyph glyph-name="satellite" unicode="&#xe821;" d="M848 595c1-5 4-8 9-8 0 0 0 0 0 0 5 0 9 4 9 9-6 96-89 170-185 165-5 0-8-4-8-9 0-5 4-8 9-8 87 5 162-62 166-149z m-162 78c-5-1-9-5-8-9 0-5 4-9 9-9 38 2 71-27 73-65 0-5 4-8 8-8 1 0 1 0 1 0 5 0 8 4 8 9-2 48-43 84-91 82z m-10 177c-5-1-8-5-8-9 0-5 4-9 9-9 136 8 252-97 260-232 0-5 4-9 8-9 1 0 1 0 1 0 5 1 8 5 8 9-8 146-132 258-278 250z m130-738c0 0 0 0 0 0l-112 112v286c2 2 3 3 5 5 11 10 17 25 17 40 0 15-6 30-17 41-11 10-25 16-41 16s-29-6-40-16c-1-2-3-3-4-5h-287l-175 176c-2 1-4 2-7 2-3 0-5-2-6-4-69-99-101-221-91-342 6-67 24-131 54-190 0-1-1-2-1-3v-371c0-5 4-9 9-9l435 0h0 0 71c3 0 5 1 7 2s2 4 2 7v88c87 10 170 40 242 90 2 2 3 4 4 7 0 2-1 5-3 6l-62 62z m-129 130l-160 159 108 108c9-7 21-11 33-11 7 0 13 1 19 3v-259z m-19 353c11 0 21-4 29-12 7-7 11-17 11-28 0-11-4-21-11-28-8-8-18-12-29-12-10 0-20 4-28 12-7 7-11 17-11 28 0 11 4 21 11 28 8 8 18 12 28 12z m-54-21c-2-6-3-13-3-19 0-12 4-24 11-34l-107-107-160 160h259z m-485-372c16-27 34-53 55-77-1-1-1-2-1-3v-255h-26v73c0 5-4 8-9 8-5 0-9-3-9-8v-73h-10v335z m80-104c91-91 210-144 337-152v-79l-345 0v240c2-3 5-6 8-9z m409-231h-55v78c6 0 11-1 16-1 0 0 0 0 0 0 13 0 26 1 39 2v-79z m-39 95c0 0 0 0 0 0-135 0-262 53-357 148-147 147-187 365-111 551l387-387c1-1 4-2 6-2 2 0 4 1 6 2 3 4 3 9 0 13l-391 391c11 24 23 47 38 69l640-640c-118-77-270-89-399-32-4 2-9 0-11-4-2-5 0-10 4-12 56-25 116-37 177-37 13 0 26 0 39 1 73 7 142 32 202 72l49-49c-82-55-179-84-279-84z m-248 151c-21 14-40 31-58 48-4 4-9 4-12 0-4-3-4-9 0-12 18-18 38-35 60-50 1-1 3-2 5-2 2 0 5 2 7 4 3 4 2 9-2 12z" horiz-adv-x="1000" />

<glyph glyph-name="cog" unicode="&#xe822;" d="M571 350q0 59-41 101t-101 42-101-42-42-101 42-101 101-42 101 42 41 101z m286 61v-124q0-7-4-13t-11-7l-104-16q-10-30-21-51 19-27 59-77 6-6 6-13t-5-13q-15-21-55-61t-53-39q-7 0-14 5l-77 60q-25-13-51-21-9-76-16-104-4-16-20-16h-124q-8 0-14 5t-6 12l-16 103q-27 9-50 21l-79-60q-6-5-14-5-8 0-14 6-70 64-92 94-4 5-4 13 0 6 5 12 8 12 28 37t30 40q-15 28-23 55l-102 15q-7 1-11 7t-5 13v124q0 7 5 13t10 7l104 16q8 25 22 51-23 32-60 77-6 7-6 14 0 5 5 12 15 20 55 60t53 40q7 0 15-5l77-60q24 13 50 21 9 76 17 104 3 16 20 16h124q7 0 13-5t7-12l15-103q28-9 50-20l80 59q5 5 13 5 7 0 14-5 72-67 92-95 4-5 4-12 0-7-4-13-9-12-29-37t-30-40q14-28 23-54l102-16q7-1 12-7t4-13z" horiz-adv-x="857.1" />

<glyph glyph-name="facebook-official" unicode="&#xe823;" d="M810 779q19 0 33-14t14-34v-762q0-20-14-34t-33-14h-218v332h111l16 130h-127v83q0 31 13 46t51 16l68 1v115q-35 5-100 5-75 0-121-45t-45-126v-95h-112v-130h112v-332h-411q-19 0-33 14t-14 34v762q0 20 14 34t33 14h763z" horiz-adv-x="857.1" />

<glyph glyph-name="vkontakte" unicode="&#xe824;" d="M1070 560q13-36-84-164-13-18-36-48-44-55-50-73-10-23 7-45 10-12 46-46h0l1 0 0-1 1-1q79-73 107-123 2-3 4-7t3-15 0-19-14-15-33-7l-143-3q-13-2-31 3t-29 13l-11 6q-17 12-39 36t-38 43-34 33-32 8q-1 0-4-2t-10-8-12-16-9-29-4-44q0-8-2-15t-4-10l-2-3q-10-11-30-12h-64q-40-3-81 9t-74 29-57 37-40 32l-14 14q-5 5-15 17t-40 50-59 85-68 117-73 152q-4 9-4 15t2 9l2 3q9 11 32 11l153 1q7-1 13-4t9-4l3-2q9-6 13-18 11-28 26-58t23-45l9-16q16-34 31-58t27-38 23-22 19-8 15 3q1 1 3 3t7 12 7 26 5 46 0 69q-1 23-5 41t-7 26l-4 6q-14 19-47 24-8 2 3 14 9 10 21 17 29 14 133 13 46-1 75-7 12-3 19-8t12-13 5-18 2-26 0-30-2-40 0-46q0-6-1-23t0-27 2-22 6-22 13-14q4-1 9-2t15 6 21 19 29 38 38 60q33 58 60 125 2 6 5 10t6 6l2 2 3 1t8 2 11 0l160 1q22 3 36-1t17-10z" horiz-adv-x="1071.4" />

<glyph glyph-name="camera" unicode="&#xe825;" d="M500 450q64 0 107-44t43-106-44-106-106-44-106 44-44 106 44 106 106 44z m400 150q42 0 71-29t29-71l0-450q0-40-29-70t-71-30l-800 0q-40 0-70 30t-30 70l0 450q0 42 30 71t70 29l120 0q28 0 40 30l30 92q10 28 40 28l340 0q30 0 40-28l30-92q12-30 40-30l120 0z m-400-550q104 0 177 73t73 177-73 177-177 73-177-73-73-177 73-177 177-73z m366 380q14 0 24 11t10 25-10 24-24 10q-36 0-36-34 0-16 11-26t25-10z" horiz-adv-x="1000" />

<glyph glyph-name="balcony" unicode="&#xe826;" d="M922 303h-31-625c0 0 0 0 0 0h-157-31c-26 0-47-21-47-47 0-8 7-15 16-15s16 7 16 15c0 9 7 16 15 16h13l-36-218c-6-33 1-67 18-95l21-35v-56c0-10 8-18 17-18h778c9 0 17 8 17 18v56l21 35c17 28 24 62 18 95l-36 218h13c9 0 16-7 16-16 0-8 7-15 15-15s16 7 16 15c0 26-21 47-47 47z m-100-328l-18-31h-46l11 27c8 22 11 45 9 68l-26 233h47l37-223c5-25 0-52-14-74z m-145-31l10 36c5 16 7 33 5 50l-19 242h47l27-236c2-18-1-36-7-53l-16-39h-47z m-82 0l3 57c0 3 0 7 0 10l-4 261h48l19-244c1-14 0-27-4-39l-12-45h-50z m-79 0v328h47l4-261c0-3 0-6 0-8l-4-59h-47z m-79 0l-4 58c0 3 0 6 0 9l4 261h47v-328h-47z m-241 0l-18 31c-14 22-19 49-14 74l37 223h47l-26-233c-2-23 1-46 10-68l11-27h-47z m80 0l-15 39c-7 17-10 35-8 53l27 236h47l-19-242c-2-17 0-34 5-50l10-36h-47z m80 0l-13 45c-4 12-5 26-4 39l19 244h48l-4-260c-1-4 0-8 0-12l3-56h-49z m-270 105l37 223h46l-36-218c-6-33 1-67 18-95l9-15h-42l-18 31c-14 22-19 49-14 74z m789-168h-750v31h63c0 0 0 0 0 0 0 0 0 0 0 0h78c0 0 0 0 0 0 0 0 0 0 0 0h78c0 0 0 0 0 0 0 0 0 0 0 0h312c0 0 0 0 0 0 0 0 0 0 0 0h78c0 0 0 0 0 0 0 0 0 0 0 0h79c0 0 0 0 0 0 0 0 0 0 0 0h62v-31z m25 94l-18-31h-42l9 15c17 28 24 62 18 95l-36 218h46l38-223c4-25-1-52-15-74z m-697 359c9 0 16 7 16 16v469h562v-469c0-9 7-16 16-16s16 7 16 16v469c0 17-14 31-32 31h-562c-17 0-31-14-31-31v-469c0-9 7-16 15-16z m531 0c9 0 16 7 16 16v422c0 9-7 16-16 16h-468c-9 0-16-7-16-16v-422c0-9 7-16 16-16s15 7 15 16v234h157c8 0 15 7 15 16s-7 16-15 16h-157v140h203v-406c0-9 7-16 16-16s16 7 16 16v234h203v-234c0-9 7-16 15-16z m-218 282v140h203v-140h-203z" horiz-adv-x="1000" />

<glyph glyph-name="internet" unicode="&#xe827;" d="M500 850c-276 0-500-224-500-500 0-276 224-500 500-500 276 0 500 224 500 500 0 276-224 500-500 500z m-140-86c-33-39-69-93-97-164h-121c53 76 129 134 218 164z m-255-226h138c-13-46-21-99-23-157h-156c4 56 19 109 41 157z m-41-219h156c2-58 10-110 23-156h-138c-22 47-37 100-41 156z m78-219h121c28-71 64-125 97-164-89 30-165 88-218 164z m327-181c-30 22-94 78-139 181h139v-181z m0 244h-162c-13 44-22 97-25 156h187v-156z m0 218h-186c2 60 11 112 25 157h161v-157z m0 219h-139c17 38 36 69 55 95 25 35 51 59 70 75 5 4 10 8 14 11v-181z m467-219h-156c-2 58-10 111-23 157h138c22-48 37-101 41-157z m-77 219h-122c-27 71-64 125-97 164 89-30 166-88 219-164z m-328 0v181c30-22 94-78 139-181l-139 0 0 0z m0-62h162c13-45 22-97 25-157h-187v157z m0-219h187c-3-60-12-112-26-156h-161v156z m14-389c-5-4-10-8-14-11v181h139c-16-38-36-69-55-95-25-35-51-59-70-75z m95 6c33 39 70 93 97 164h122c-54-76-130-134-219-164z m255 227h-137c12 46 20 98 22 156h156c-4-56-19-108-41-156z" horiz-adv-x="1000" />

<glyph glyph-name="hot" unicode="&#xe828;" d="M674 501h-348c-20 0-35-15-35-35v-290c0-20 15-35 35-35h348c20 0 36 15 36 35v290c0 20-16 35-36 35z m-35-70v-168c-4 23-9 45-13 58-3 11-11 20-22 24-11 4-23 2-33-5 0 0-4-3-10-7-16 27-31 49-32 50-7 10-17 16-29 16s-22-6-29-16c-1-1-16-23-32-50-6 4-10 7-10 7-10 7-22 9-33 5-11-4-19-13-22-24-4-13-9-35-13-58v168h278z m-213-220c0 9 1 22 4 38 8-5 17-7 26-5 11 2 20 9 25 19 5 11 12 24 19 35 7-11 14-24 20-35 4-10 14-17 24-19 9-2 18 0 26 5 3-16 4-29 4-38h-148z m481-291l-103 0c0 0-16 1-30 9-9 5-21 14-24 37h99c19 0 35 16 35 35v814c0 19-16 35-35 35h-698c-19 0-35-16-35-35v-814c0-19 16-35 35-35h99c-3-23-14-32-24-37-14-8-30-9-30-9h-103c-19 0-35-15-35-35 0-19 16-35 35-35h103c49 0 120 31 124 116h360c4-85 76-116 124-116h103c19 0 35 16 35 35 0 20-16 35-35 35z m-720 860h626v-743h-626v743z m313-659c-9 0-18-4-25-10-6-7-10-16-10-25 0-9 4-18 10-25 7-6 16-10 25-10 9 0 18 4 25 10 7 7 10 16 10 25 0 9-3 18-10 25-7 6-16 10-25 10z" horiz-adv-x="1000" />
</font>
</defs>
</svg>
